<svg width="200" height="200" viewBox="0 0 200 200" fill="none" xmlns="http://www.w3.org/2000/svg">
<path d="M28.1815 36.0486L24.5887 39.9914V50H18.0096V16.0314H24.5887V31.5926L27.6682 27.4398L35.9271 16.0314H43.9526L32.5209 31.056L44.3726 50H36.5803L28.1815 36.0486Z" fill="#171B16"/>
<path d="M161.503 149.031H181.147V154.327H174.521V177.727H181.147V183H161.503V177.727H167.965V154.327H161.503V149.031Z" fill="#171B16"/>
<path d="M137.5 0L200 0.000104904V62.5001L62.5 200H0V137.5L137.5 0Z" fill="#191D19"/>
<path d="M161.503 16.0314H181.147V21.3273H174.521V44.7274H181.147V50H161.503V44.7274H167.965V21.3273H161.503V16.0314Z" fill="#F6FAF5"/>
<path d="M26.1051 149.031L29.3247 161.793L32.9875 149.031H41.1297V183H35.1105V172.945L35.3905 157.057L30.9344 171.802H27.6916L23.7021 157.687L23.9821 172.945V183H17.9629V149.031H26.1051Z" fill="#F6FAF5"/>
</svg>
